<svg width="25" height="22" viewBox="0 0 25 22" fill="none" xmlns="http://www.w3.org/2000/svg">
<path d="M10.022 21.54C9.82306 21.54 9.6323 21.461 9.49164 21.3204C9.35099 21.1797 9.27197 20.989 9.27197 20.79C9.27197 20.5911 9.35099 20.4004 9.49164 20.2597C9.6323 20.1191 9.82306 20.04 10.022 20.04H19.772C20.5676 20.04 21.3307 19.724 21.8933 19.1614C22.4559 18.5987 22.772 17.8357 22.772 17.04V5.04004C22.772 4.24439 22.4559 3.48133 21.8933 2.91872C21.3307 2.35611 20.5676 2.04004 19.772 2.04004H10.022C9.82306 2.04004 9.6323 1.96102 9.49164 1.82037C9.35099 1.67972 9.27197 1.48895 9.27197 1.29004C9.27197 1.09113 9.35099 0.900361 9.49164 0.759709C9.6323 0.619057 9.82306 0.540039 10.022 0.540039H19.772C20.9655 0.540039 22.11 1.01414 22.954 1.85806C23.7979 2.70197 24.272 3.84656 24.272 5.04004V17.04C24.272 18.2335 23.7979 19.3781 22.954 20.222C22.11 21.0659 20.9655 21.54 19.772 21.54H10.022ZM10.241 5.25904C10.3106 5.18919 10.3934 5.13378 10.4845 5.09597C10.5756 5.05816 10.6733 5.0387 10.772 5.0387C10.8706 5.0387 10.9683 5.05816 11.0594 5.09597C11.1505 5.13378 11.2333 5.18919 11.303 5.25904L16.553 10.509C16.6228 10.5787 16.6782 10.6615 16.716 10.7526C16.7539 10.8437 16.7733 10.9414 16.7733 11.04C16.7733 11.1387 16.7539 11.2364 16.716 11.3275C16.6782 11.4186 16.6228 11.5014 16.553 11.571L11.303 16.821C11.1621 16.9619 10.9711 17.041 10.772 17.041C10.5728 17.041 10.3818 16.9619 10.241 16.821C10.1001 16.6802 10.021 16.4892 10.021 16.29C10.021 16.0909 10.1001 15.8999 10.241 15.759L14.2115 11.79H1.02197C0.82306 11.79 0.632295 11.711 0.491643 11.5704C0.35099 11.4297 0.271973 11.239 0.271973 11.04C0.271973 10.8411 0.35099 10.6504 0.491643 10.5097C0.632295 10.3691 0.82306 10.29 1.02197 10.29H14.2115L10.241 6.32104C10.1711 6.25137 10.1157 6.16861 10.0779 6.07749C10.0401 5.98637 10.0206 5.88869 10.0206 5.79004C10.0206 5.69139 10.0401 5.59371 10.0779 5.50259C10.1157 5.41147 10.1711 5.32871 10.241 5.25904Z" fill="#242222"/>
</svg>
