<svg width="20" height="20" viewBox="0 0 20 20" fill="none" xmlns="http://www.w3.org/2000/svg">
<path d="M20 10.0619C20 4.50335 15.5206 0 10 0C4.47563 0 0 4.50335 0 10.0619C0 15.0829 3.65562 19.246 8.4375 20V12.9711H5.89813V10.0626H8.4375V7.84454C8.4375 5.3234 9.92813 3.93108 12.2131 3.93108C13.3075 3.93108 14.4531 4.12728 14.4531 4.12728V6.60315H13.19C11.95 6.60315 11.5625 7.37981 11.5625 8.17533V10.0619H14.3356L13.89 12.9705H11.5625V19.9994C16.3406 19.2454 20 15.0822 20 10.0613V10.0619Z" fill="#297D3B"/>
</svg>
