<svg width="23" height="37" viewBox="0 0 23 37" fill="none" xmlns="http://www.w3.org/2000/svg">
<circle cx="11.7918" cy="6.43013" r="5.46455" stroke="#242222"/>
<path d="M22.1762 23.4424C22.4974 23.3888 22.716 23.0845 22.6455 22.7665C22.1155 20.3761 20.8107 18.2208 18.9257 16.6412C16.8896 14.935 14.3108 14.0126 11.6545 14.0407C8.99821 14.0687 6.43941 15.0452 4.43982 16.794C2.58854 18.4131 1.32948 20.5954 0.850015 22.9964C0.786237 23.3158 1.01117 23.6155 1.33348 23.6623C1.65579 23.7091 1.95324 23.4852 2.01902 23.1662C2.45675 21.0435 3.57677 19.1156 5.21626 17.6818C7.0041 16.1182 9.29194 15.2451 11.6669 15.22C14.0419 15.195 16.3477 16.0196 18.1681 17.5451C19.8375 18.9441 20.9979 20.848 21.4803 22.9609C21.5528 23.2784 21.8549 23.496 22.1762 23.4424Z" fill="#242222"/>
</svg>
